<svg width="16" height="16" viewBox="0 0 16 16" fill="none" xmlns="http://www.w3.org/2000/svg">
<g clip-path="url(#clip0_5598_183)">
<path d="M12.4001 5.3913C12.4001 8.07617 7.54797 14.5565 7.54797 14.5565C7.54797 14.5565 2.6958 8.07617 2.6958 5.3913C2.6958 4.10442 3.20701 2.87025 4.11697 1.96029C5.02693 1.05033 6.2611 0.539124 7.54797 0.539124C8.83485 0.539124 10.069 1.05033 10.979 1.96029C11.8889 2.87025 12.4001 4.10442 12.4001 5.3913V5.3913Z" stroke="#1F2937" stroke-width="1.07826" stroke-linecap="round" stroke-linejoin="round"/>
<path d="M7.54806 7.00865C8.44132 7.00865 9.16545 6.28452 9.16545 5.39126C9.16545 4.498 8.44132 3.77386 7.54806 3.77386C6.65479 3.77386 5.93066 4.498 5.93066 5.39126C5.93066 6.28452 6.65479 7.00865 7.54806 7.00865Z" stroke="#1F2937" stroke-width="1.07826" stroke-linecap="round" stroke-linejoin="round"/>
</g>
<defs>
<clipPath id="clip0_5598_183">
<rect width="15.0957" height="15.0957" fill="white"/>
</clipPath>
</defs>
</svg>
