<svg width="72" height="22" viewBox="0 0 72 22" fill="none" xmlns="http://www.w3.org/2000/svg">
<path d="M2.73386 8.74583L2.86032 8.75498C6.84169 9.09199 10.0134 12.2722 10.3369 16.2576C10.3389 16.2837 10.3409 16.3173 10.3433 16.3594C10.3509 16.503 10.3011 16.6438 10.2049 16.7507C10.1087 16.8576 9.97398 16.922 9.83034 16.9296L9.80118 16.9303H9.39332C9.25542 16.9303 9.12268 16.8778 9.02211 16.7835C8.92153 16.6891 8.86066 16.56 8.85187 16.4224C8.84848 16.3722 8.84509 16.3275 8.8417 16.2885C8.5413 13.1212 6.03985 10.595 2.88405 10.2559C2.81276 10.249 2.74131 10.2437 2.66978 10.24C2.53162 10.2319 2.40179 10.1712 2.30687 10.0705C2.21195 9.96979 2.15911 9.8366 2.15918 9.6982V9.28762C2.15919 9.21367 2.17431 9.14051 2.20363 9.07262C2.23294 9.00474 2.27583 8.94356 2.32965 8.89285C2.38347 8.84214 2.44709 8.80298 2.5166 8.77775C2.58611 8.75253 2.66004 8.74178 2.73386 8.74617V8.74583ZM2.72165 3.99145C2.76844 3.99314 2.81048 3.99484 2.84811 3.99687C9.46079 4.34337 14.7597 9.65039 15.094 16.2665L15.098 16.3705C15.1026 16.5143 15.0499 16.654 14.9515 16.7589C14.853 16.8638 14.717 16.9254 14.5732 16.93H14.5644L14.1484 16.9303C14.0081 16.9302 13.8733 16.8758 13.7722 16.7784C13.6712 16.6811 13.6119 16.5484 13.6066 16.4082C13.6046 16.3539 13.6022 16.3058 13.5998 16.2637C13.2679 10.4777 8.64302 5.8416 2.86134 5.49171C2.80204 5.48849 2.7427 5.48601 2.68334 5.48425C2.54266 5.4795 2.40934 5.42025 2.31154 5.31903C2.21373 5.21781 2.1591 5.08253 2.15918 4.94178V4.53357C2.15913 4.46062 2.1738 4.38841 2.2023 4.32125C2.2308 4.2541 2.27256 4.19339 2.32507 4.14274C2.37758 4.0921 2.43977 4.05257 2.50791 4.02651C2.57605 4.00046 2.64875 3.98842 2.72165 3.99111V3.99145ZM3.51535 14.218C3.87503 14.218 4.21997 14.3608 4.4743 14.6152C4.72863 14.8695 4.87152 15.2145 4.87152 15.5741C4.87152 15.9338 4.72863 16.2788 4.4743 16.5331C4.21997 16.7874 3.87503 16.9303 3.51535 16.9303C3.15567 16.9303 2.81072 16.7874 2.55639 16.5331C2.30206 16.2788 2.15918 15.9338 2.15918 15.5741C2.15918 15.2145 2.30206 14.8695 2.55639 14.6152C2.81072 14.3608 3.15567 14.218 3.51535 14.218Z" fill="black"/>
<path d="M33.5455 10.9091C33.5455 11.983 33.3517 12.911 32.9639 13.6932C32.5761 14.4754 32.0441 15.0786 31.368 15.5028C30.6919 15.9271 29.9196 16.1392 29.0512 16.1392C28.1829 16.1392 27.4106 15.9271 26.7345 15.5028C26.0583 15.0786 25.5264 14.4754 25.1386 13.6932C24.7508 12.911 24.5569 11.983 24.5569 10.9091C24.5569 9.83523 24.7508 8.9072 25.1386 8.125C25.5264 7.3428 26.0583 6.73958 26.7345 6.31534C27.4106 5.8911 28.1829 5.67898 29.0512 5.67898C29.9196 5.67898 30.6919 5.8911 31.368 6.31534C32.0441 6.73958 32.5761 7.3428 32.9639 8.125C33.3517 8.9072 33.5455 9.83523 33.5455 10.9091ZM32.3524 10.9091C32.3524 10.0275 32.2049 9.28338 31.9099 8.67685C31.6182 8.07031 31.2222 7.61127 30.7217 7.29972C30.2245 6.98816 29.6677 6.83239 29.0512 6.83239C28.4347 6.83239 27.8763 6.98816 27.3758 7.29972C26.8786 7.61127 26.4826 8.07031 26.1876 8.67685C25.8959 9.28338 25.7501 10.0275 25.7501 10.9091C25.7501 11.7907 25.8959 12.5348 26.1876 13.1413C26.4826 13.7479 26.8786 14.2069 27.3758 14.5185C27.8763 14.83 28.4347 14.9858 29.0512 14.9858C29.6677 14.9858 30.2245 14.83 30.7217 14.5185C31.2222 14.2069 31.6182 13.7479 31.9099 13.1413C32.2049 12.5348 32.3524 11.7907 32.3524 10.9091ZM36.3529 11.4062V16H35.1796V8.36364H36.3131V9.55682H36.4126C36.5915 9.16903 36.8633 8.85748 37.2279 8.62216C37.5925 8.38352 38.0631 8.2642 38.6398 8.2642C39.1569 8.2642 39.6093 8.37027 39.9971 8.58239C40.3849 8.79119 40.6865 9.10938 40.9019 9.53693C41.1173 9.96117 41.2251 10.4981 41.2251 11.1477V16H40.0518V11.2273C40.0518 10.6274 39.896 10.16 39.5844 9.82528C39.2729 9.48722 38.8453 9.31818 38.3018 9.31818C37.9272 9.31818 37.5925 9.39938 37.2975 9.56179C37.0058 9.72419 36.7755 9.96117 36.6065 10.2727C36.4374 10.5843 36.3529 10.9621 36.3529 11.4062ZM47.4641 11.0881V12.1818H43.0095V11.0881H47.4641ZM54.6576 10.0739L53.6036 10.3722C53.5373 10.1965 53.4396 10.0258 53.3103 9.86009C53.1844 9.69105 53.012 9.55185 52.7933 9.44247C52.5745 9.3331 52.2944 9.27841 51.9531 9.27841C51.4857 9.27841 51.0963 9.38613 50.7847 9.60156C50.4765 9.81368 50.3224 10.0838 50.3224 10.4119C50.3224 10.7036 50.4284 10.9339 50.6406 11.103C50.8527 11.272 51.1841 11.4129 51.6349 11.5256L52.7684 11.804C53.4512 11.9697 53.9599 12.2232 54.2947 12.5646C54.6294 12.9027 54.7968 13.3385 54.7968 13.8722C54.7968 14.3097 54.6709 14.7008 54.419 15.0455C54.1704 15.3902 53.8224 15.6619 53.3749 15.8608C52.9275 16.0597 52.4071 16.1591 51.8139 16.1591C51.035 16.1591 50.3903 15.9901 49.8799 15.652C49.3695 15.3139 49.0463 14.8201 48.9104 14.1705L50.0241 13.892C50.1301 14.303 50.3307 14.6113 50.6256 14.8168C50.9239 15.0223 51.3134 15.125 51.794 15.125C52.3408 15.125 52.775 15.009 53.0965 14.777C53.4213 14.5417 53.5837 14.2599 53.5837 13.9318C53.5837 13.6667 53.4909 13.4446 53.3053 13.2656C53.1197 13.0833 52.8347 12.9474 52.4502 12.858L51.1775 12.5597C50.4782 12.3939 49.9644 12.1371 49.6363 11.7891C49.3115 11.4377 49.1491 10.9986 49.1491 10.4716C49.1491 10.0407 49.2701 9.65956 49.512 9.32812C49.7573 8.99669 50.0904 8.73651 50.5113 8.54758C50.9355 8.35866 51.4161 8.2642 51.9531 8.2642C52.7087 8.2642 53.302 8.42992 53.7329 8.76136C54.1671 9.0928 54.4753 9.5303 54.6576 10.0739ZM56.283 16V8.36364H57.4563V16H56.283ZM56.8796 7.09091C56.6509 7.09091 56.4537 7.01302 56.2879 6.85724C56.1255 6.70147 56.0443 6.5142 56.0443 6.29545C56.0443 6.0767 56.1255 5.88944 56.2879 5.73366C56.4537 5.57789 56.6509 5.5 56.8796 5.5C57.1082 5.5 57.3038 5.57789 57.4662 5.73366C57.6319 5.88944 57.7148 6.0767 57.7148 6.29545C57.7148 6.5142 57.6319 6.70147 57.4662 6.85724C57.3038 7.01302 57.1082 7.09091 56.8796 7.09091ZM62.6463 8.36364V9.35795H58.6889V8.36364H62.6463ZM59.8423 6.53409H61.0156V13.8125C61.0156 14.1439 61.0636 14.3925 61.1597 14.5582C61.2592 14.7206 61.3851 14.83 61.5376 14.8864C61.6934 14.9394 61.8574 14.9659 62.0298 14.9659C62.159 14.9659 62.2651 14.9593 62.348 14.946C62.4308 14.9295 62.4971 14.9162 62.5468 14.9062L62.7855 15.9602C62.7059 15.9901 62.5949 16.0199 62.4524 16.0497C62.3098 16.0829 62.1292 16.0994 61.9105 16.0994C61.579 16.0994 61.2542 16.0282 60.936 15.8857C60.6212 15.7431 60.3593 15.526 60.1505 15.2344C59.945 14.9427 59.8423 14.5748 59.8423 14.1307V6.53409ZM67.2508 16.1591C66.515 16.1591 65.8803 15.9967 65.3467 15.6719C64.8164 15.3438 64.4071 14.8864 64.1187 14.2997C63.8337 13.7098 63.6912 13.0237 63.6912 12.2415C63.6912 11.4593 63.8337 10.7699 64.1187 10.1733C64.4071 9.57339 64.8081 9.10606 65.3219 8.77131C65.8389 8.43324 66.4421 8.2642 67.1315 8.2642C67.5293 8.2642 67.922 8.33049 68.3098 8.46307C68.6976 8.59564 69.0506 8.81108 69.3687 9.10938C69.6869 9.40436 69.9405 9.79545 70.1294 10.2827C70.3183 10.7699 70.4128 11.3698 70.4128 12.0824V12.5795H64.5264V11.5653H69.2196C69.2196 11.1345 69.1334 10.75 68.9611 10.4119C68.792 10.0739 68.5501 9.80705 68.2352 9.61151C67.9237 9.41596 67.5558 9.31818 67.1315 9.31818C66.6642 9.31818 66.2598 9.43419 65.9185 9.66619C65.5804 9.89489 65.3202 10.1932 65.1379 10.5611C64.9556 10.929 64.8645 11.3234 64.8645 11.7443V12.4205C64.8645 12.9972 64.9639 13.486 65.1628 13.8871C65.365 14.2848 65.645 14.5881 66.003 14.7969C66.3609 15.0024 66.7769 15.1051 67.2508 15.1051C67.5591 15.1051 67.8375 15.062 68.0861 14.9759C68.338 14.8864 68.5551 14.7538 68.7373 14.5781C68.9196 14.3991 69.0605 14.1771 69.1599 13.9119L70.2935 14.2301C70.1741 14.6146 69.9736 14.9527 69.6919 15.2443C69.4102 15.5327 69.0622 15.758 68.6479 15.9205C68.2336 16.0795 67.7679 16.1591 67.2508 16.1591Z" fill="#1F2937"/>
</svg>
