<svg width="24" height="22" viewBox="0 0 24 22" fill="none" xmlns="http://www.w3.org/2000/svg">
<g clip-path="url(#clip0_604_2129)">
<g clip-path="url(#clip1_604_2129)">
<path d="M11.3297 18.1124C11.9929 18.1124 12.5355 17.5749 12.5355 16.918V12.7378H16.7555C17.4187 12.7378 17.9612 12.2003 17.9612 11.5434C17.9612 10.8865 17.4187 10.3491 16.7555 10.3491H12.5355V6.16884C12.5355 5.51194 11.9929 4.97448 11.3297 4.97448C10.6666 4.97448 10.124 5.51194 10.124 6.16884V10.3491H5.90396C5.24081 10.3491 4.69823 10.8865 4.69823 11.5434C4.69823 12.2003 5.24081 12.7378 5.90396 12.7378H10.124V16.918C10.124 17.5749 10.6666 18.1124 11.3297 18.1124Z" fill="black"/>
<path d="M22.5008 8.68892L22.4043 8.64115C22.0125 8.44408 21.699 8.12758 21.494 7.73941L21.4458 7.64386C21.2529 7.26764 20.7043 7.26764 20.5113 7.64386L20.4631 7.73941C20.2642 8.12758 19.9446 8.43811 19.5528 8.64115L19.4563 8.68892C19.0765 8.88002 19.0765 9.42345 19.4563 9.61455L19.5528 9.66232C19.9446 9.85939 20.2581 10.1759 20.4631 10.5641L20.5113 10.6596C20.7043 11.0358 21.2529 11.0358 21.4458 10.6596L21.494 10.5641C21.693 10.1759 22.0125 9.86536 22.4043 9.66232L22.5008 9.61455C22.8806 9.42345 22.8806 8.88002 22.5008 8.68892Z" fill="black"/>
<path d="M13.8919 6.13898L14.0848 6.23453C14.6877 6.53909 15.17 7.01683 15.4774 7.61401L15.5739 7.8051C15.9055 8.45005 16.5686 8.85016 17.3041 8.85016C18.0396 8.85016 18.6967 8.45005 19.0343 7.8051L19.1308 7.61401C19.4382 7.01683 19.9205 6.53909 20.5234 6.23453L20.7163 6.13898C21.3674 5.81053 21.7713 5.15364 21.7713 4.42508C21.7713 3.69653 21.3674 3.0456 20.7163 2.71118L20.5234 2.61564C19.9205 2.31107 19.4382 1.83333 19.1308 1.23616L19.0343 1.04506C18.7027 0.400109 18.0396 0 17.3101 0C16.5807 0 15.9175 0.400109 15.5799 1.04506L15.4835 1.23616C15.176 1.83333 14.6937 2.31107 14.0908 2.61564L13.8979 2.71118C13.2468 3.03963 12.8429 3.69653 12.8429 4.41911C12.8429 5.14169 13.2468 5.79859 13.8979 6.13301L13.8919 6.13898ZM14.7118 4.31162L14.9047 4.21607C15.8512 3.73833 16.6048 2.99186 17.0871 2.05429L17.1835 1.86319C17.1835 1.86319 17.2197 1.79153 17.2981 1.79153C17.3765 1.79153 17.4066 1.83931 17.4126 1.86319L17.5091 2.05429C17.9914 2.99186 18.745 3.73833 19.6914 4.21607L19.8844 4.31162C19.8844 4.31162 19.9567 4.34745 19.9567 4.42508C19.9567 4.50271 19.9024 4.53257 19.8844 4.53855L19.6914 4.63409C18.745 5.11184 17.9914 5.85831 17.5091 6.79587L17.4126 6.98697C17.4126 6.98697 17.3765 7.05863 17.2981 7.05863C17.2197 7.05863 17.1896 7.00489 17.1835 6.98697L17.0871 6.79587C16.6048 5.85831 15.8512 5.11184 14.9047 4.63409L14.7118 4.53855C14.7118 4.53855 14.6395 4.50271 14.6395 4.42508C14.6395 4.34745 14.6937 4.31759 14.7118 4.31162Z" fill="black"/>
<path d="M21.0117 11.848C20.5174 11.7883 20.0652 12.1346 20.0049 12.6243C19.4624 16.9419 15.7306 20.2025 11.3297 20.2025C6.50682 20.2025 2.58821 16.3208 2.58821 11.5434C2.58821 6.76602 6.50682 2.88436 11.3297 2.88436C11.5106 2.88436 11.6975 2.88436 11.8783 2.90228C12.3847 2.93214 12.8067 2.55592 12.8369 2.06623C12.867 1.57058 12.4872 1.14658 11.9929 1.11672C11.7758 1.10478 11.5528 1.09881 11.3358 1.09881C5.51812 1.09881 0.785645 5.78664 0.785645 11.5494C0.785645 17.3122 5.51812 22 11.3358 22C16.647 22 21.1504 18.0706 21.8015 12.8572C21.8618 12.3675 21.5121 11.9197 21.0177 11.8599L21.0117 11.848Z" fill="black"/>
</g>
</g>
<defs>
<clipPath id="clip0_604_2129">
<rect width="23.5714" height="22" fill="white"/>
</clipPath>
<clipPath id="clip1_604_2129">
<rect width="22" height="22" fill="white" transform="translate(0.785645)"/>
</clipPath>
</defs>
</svg>
