<svg width="22" height="21" viewBox="0 0 22 21" fill="none" xmlns="http://www.w3.org/2000/svg">
<g clip-path="url(#clip0_5598_698)">
<path d="M5.30615 14.6665H4.38949C3.90326 14.6665 3.43694 14.4733 3.09312 14.1295C2.74931 13.7857 2.55615 13.3194 2.55615 12.8332V3.66649C2.55615 3.18026 2.74931 2.71395 3.09312 2.37013C3.43694 2.02631 3.90326 1.83316 4.38949 1.83316H19.0562C19.5424 1.83316 20.0087 2.02631 20.3525 2.37013C20.6963 2.71395 20.8895 3.18026 20.8895 3.66649V12.8332C20.8895 13.3194 20.6963 13.7857 20.3525 14.1295C20.0087 14.4733 19.5424 14.6665 19.0562 14.6665H18.1395" stroke="#1D2633" stroke-width="1.83333" stroke-linecap="round" stroke-linejoin="round"/>
<path d="M11.7215 12.8332L16.3049 18.3332H7.13818L11.7215 12.8332Z" stroke="#1D2633" stroke-width="1.83333" stroke-linecap="round" stroke-linejoin="round"/>
</g>
<defs>
<clipPath id="clip0_5598_698">
<rect width="22" height="20.1667" fill="white"/>
</clipPath>
</defs>
</svg>
