
<svg width="24" height="22" viewBox="0 0 24 22" fill="none" xmlns="http://www.w3.org/2000/svg">
<path d="M19.117 6.41656H4.45028C3.43776 6.41656 2.61694 7.23737 2.61694 8.2499V17.4166C2.61694 18.4291 3.43776 19.2499 4.45028 19.2499H19.117C20.1295 19.2499 20.9503 18.4291 20.9503 17.4166V8.2499C20.9503 7.23737 20.1295 6.41656 19.117 6.41656Z" stroke="white" stroke-width="1.83334" stroke-linecap="round" stroke-linejoin="round"/>
<path d="M15.4501 19.2499V4.58323C15.4501 4.097 15.2569 3.63068 14.9131 3.28687C14.5693 2.94305 14.1029 2.74989 13.6167 2.74989H9.95004C9.46381 2.74989 8.99749 2.94305 8.65367 3.28687C8.30985 3.63068 8.1167 4.097 8.1167 4.58323V19.2499" stroke="white" stroke-width="1.83334" stroke-linecap="round" stroke-linejoin="round"/>
</svg>
