<svg width="24" height="22" viewBox="0 0 24 22" fill="none" xmlns="http://www.w3.org/2000/svg">
<g clip-path="url(#clip0_5598_705)">
<g clip-path="url(#clip1_5598_705)">
<path d="M11.7856 13.75C13.3044 13.75 14.5356 12.5188 14.5356 11C14.5356 9.48122 13.3044 8.25 11.7856 8.25C10.2669 8.25 9.03564 9.48122 9.03564 11C9.03564 12.5188 10.2669 13.75 11.7856 13.75Z" stroke="#1D2633" stroke-width="1.83333" stroke-linecap="round" stroke-linejoin="round"/>
<path d="M18.5691 13.75C18.447 14.0265 18.4106 14.3332 18.4646 14.6305C18.5185 14.9279 18.6602 15.2023 18.8716 15.4183L18.9266 15.4733C19.097 15.6436 19.2322 15.8458 19.3245 16.0683C19.4168 16.2909 19.4643 16.5295 19.4643 16.7704C19.4643 17.0113 19.4168 17.2499 19.3245 17.4725C19.2322 17.695 19.097 17.8972 18.9266 18.0675C18.7563 18.2379 18.5541 18.3732 18.3315 18.4654C18.109 18.5577 17.8704 18.6052 17.6295 18.6052C17.3885 18.6052 17.15 18.5577 16.9274 18.4654C16.7049 18.3732 16.5027 18.2379 16.3324 18.0675L16.2774 18.0125C16.0614 17.8012 15.787 17.6594 15.4896 17.6055C15.1922 17.5516 14.8855 17.588 14.6091 17.71C14.3379 17.8262 14.1067 18.0191 13.9438 18.2651C13.781 18.511 13.6936 18.7992 13.6924 19.0942V19.25C13.6924 19.7362 13.4992 20.2025 13.1554 20.5464C12.8116 20.8902 12.3453 21.0833 11.8591 21.0833C11.3728 21.0833 10.9065 20.8902 10.5627 20.5464C10.2189 20.2025 10.0257 19.7362 10.0257 19.25V19.1675C10.0186 18.8641 9.92042 18.5698 9.74386 18.323C9.5673 18.0761 9.32057 17.8881 9.03573 17.7833C8.75924 17.6613 8.45255 17.6249 8.15519 17.6788C7.85782 17.7327 7.58343 17.8745 7.36739 18.0858L7.31239 18.1408C7.14212 18.3113 6.93993 18.4465 6.71737 18.5388C6.4948 18.631 6.25624 18.6785 6.01531 18.6785C5.77438 18.6785 5.53581 18.631 5.31325 18.5388C5.09069 18.4465 4.88849 18.3113 4.71823 18.1408C4.54777 17.9706 4.41254 17.7684 4.32028 17.5458C4.22802 17.3232 4.18053 17.0847 4.18053 16.8437C4.18053 16.6028 4.22802 16.3642 4.32028 16.1417C4.41254 15.9191 4.54777 15.7169 4.71823 15.5467L4.77323 15.4917C4.98455 15.2756 5.12631 15.0012 5.18023 14.7039C5.23415 14.4065 5.19775 14.0998 5.07573 13.8233C4.95953 13.5522 4.76658 13.321 4.52065 13.1581C4.27472 12.9952 3.98653 12.9078 3.69156 12.9067H3.53573C3.0495 12.9067 2.58318 12.7135 2.23936 12.3697C1.89555 12.0259 1.70239 11.5596 1.70239 11.0733C1.70239 10.5871 1.89555 10.1208 2.23936 9.77696C2.58318 9.43314 3.0495 9.23999 3.53573 9.23999H3.61823C3.92164 9.23289 4.2159 9.13468 4.46275 8.95812C4.7096 8.78157 4.89763 8.53483 5.00239 8.24999C5.12441 7.97351 5.16081 7.66681 5.1069 7.36945C5.05298 7.07209 4.91122 6.7977 4.69989 6.58166L4.64489 6.52666C4.47444 6.35639 4.33921 6.15419 4.24695 5.93163C4.15469 5.70907 4.1072 5.4705 4.1072 5.22957C4.1072 4.98864 4.15469 4.75008 4.24695 4.52752C4.33921 4.30495 4.47444 4.10276 4.64489 3.93249C4.81516 3.76203 5.01736 3.62681 5.23992 3.53455C5.46248 3.44229 5.70105 3.3948 5.94198 3.3948C6.1829 3.3948 6.42147 3.44229 6.64403 3.53455C6.8666 3.62681 7.06879 3.76203 7.23906 3.93249L7.29406 3.98749C7.5101 4.19882 7.78449 4.34058 8.08185 4.39449C8.37921 4.44841 8.68591 4.41201 8.96239 4.28999H9.03573C9.30685 4.17379 9.53807 3.98085 9.70094 3.73492C9.86381 3.48898 9.95122 3.20079 9.95239 2.90582V2.74999C9.95239 2.26376 10.1455 1.79744 10.4894 1.45363C10.8332 1.10981 11.2995 0.916656 11.7857 0.916656C12.272 0.916656 12.7383 1.10981 13.0821 1.45363C13.4259 1.79744 13.6191 2.26376 13.6191 2.74999V2.83249C13.6202 3.12746 13.7076 3.41565 13.8705 3.66158C14.0334 3.90752 14.2646 4.10046 14.5357 4.21666C14.8122 4.33868 15.1189 4.37508 15.4163 4.32116C15.7136 4.26724 15.988 4.12548 16.2041 3.91416L16.2591 3.85916C16.4293 3.6887 16.6315 3.55347 16.8541 3.46121C17.0766 3.36895 17.3152 3.32146 17.5561 3.32146C17.7971 3.32146 18.0356 3.36895 18.2582 3.46121C18.4808 3.55347 18.683 3.6887 18.8532 3.85916C19.0237 4.02942 19.1589 4.23162 19.2512 4.45418C19.3434 4.67675 19.3909 4.91531 19.3909 5.15624C19.3909 5.39717 19.3434 5.63573 19.2512 5.8583C19.1589 6.08086 19.0237 6.28306 18.8532 6.45332L18.7982 6.50832C18.5869 6.72436 18.4451 6.99875 18.3912 7.29612C18.3373 7.59348 18.3737 7.90017 18.4957 8.17666V8.24999C18.6119 8.52111 18.8049 8.75234 19.0508 8.91521C19.2967 9.07808 19.5849 9.16548 19.8799 9.16666H20.0357C20.522 9.16666 20.9883 9.35981 21.3321 9.70363C21.6759 10.0474 21.8691 10.5138 21.8691 11C21.8691 11.4862 21.6759 11.9525 21.3321 12.2964C20.9883 12.6402 20.522 12.8333 20.0357 12.8333H19.9532C19.6583 12.8345 19.3701 12.9219 19.1241 13.0848C18.8782 13.2476 18.6853 13.4789 18.5691 13.75Z" stroke="#1D2633" stroke-width="1.83333" stroke-linecap="round" stroke-linejoin="round"/>
</g>
</g>
<defs>
<clipPath id="clip0_5598_705">
<rect width="23.5714" height="22" fill="white"/>
</clipPath>
<clipPath id="clip1_5598_705">
<rect width="22" height="22" fill="white" transform="translate(0.785645)"/>
</clipPath>
</defs>
</svg>
