<svg width="24" height="24" viewBox="0 0 24 24" fill="none" xmlns="http://www.w3.org/2000/svg">
<path d="M4.5 1.5C4.30109 1.5 4.11032 1.57902 3.96967 1.71967C3.82902 1.86032 3.75 2.05109 3.75 2.25V21.75C3.74994 21.8752 3.78122 21.9984 3.84098 22.1084C3.90075 22.2184 3.98709 22.3117 4.09215 22.3798C4.19721 22.4478 4.31764 22.4885 4.44246 22.4981C4.56728 22.5077 4.69251 22.486 4.80675 22.4347L11.8125 19.2975L18.8183 22.4347C18.9282 22.484 19.0484 22.506 19.1686 22.499C19.2889 22.4919 19.4057 22.456 19.5091 22.3943C19.6126 22.3326 19.6996 22.2468 19.7629 22.1444C19.8262 22.0419 19.8639 21.9256 19.8728 21.8055L19.875 21.75V2.25C19.875 2.05109 19.796 1.86032 19.6553 1.71967C19.5147 1.57902 19.3239 1.5 19.125 1.5H4.5ZM5.25 3H18.375V20.592L12.1193 17.7915C11.9465 17.7142 11.7509 17.7051 11.5718 17.766L11.5057 17.7915L5.25 20.592V3ZM12.477 7.15275C12.4135 7.03143 12.318 6.92981 12.2009 6.85891C12.0837 6.788 11.9494 6.75051 11.8125 6.75051C11.6756 6.75051 11.5413 6.788 11.4241 6.85891C11.307 6.92981 11.2115 7.03143 11.148 7.15275L10.2375 8.895L8.2995 9.222C8.16904 9.24386 8.04669 9.29983 7.94485 9.38423C7.843 9.46864 7.76529 9.57848 7.7196 9.70261C7.67391 9.82674 7.66186 9.96075 7.68467 10.091C7.70748 10.2213 7.76435 10.3433 7.8495 10.4445L7.8885 10.4865L9.26475 11.8905L8.97675 13.8345C8.95734 13.9654 8.97289 14.099 9.02182 14.2219C9.07075 14.3448 9.15131 14.4526 9.25534 14.5343C9.35938 14.6161 9.48317 14.6688 9.61417 14.6872C9.74517 14.7057 9.87871 14.6891 10.0012 14.6392L10.0522 14.6168L11.8125 13.7415L13.5728 14.616C13.6912 14.6749 13.8231 14.7015 13.9551 14.693C14.0871 14.6845 14.2146 14.6413 14.3245 14.5676C14.4343 14.494 14.5228 14.3926 14.5809 14.2737C14.6389 14.1548 14.6645 14.0227 14.655 13.8907L14.6483 13.8345L14.3603 11.8897L15.7365 10.4872C15.8291 10.3929 15.8951 10.2757 15.9279 10.1475C15.9606 10.0194 15.9589 9.88491 15.9228 9.75767C15.8868 9.63043 15.8178 9.51497 15.7228 9.42301C15.6278 9.33104 15.5101 9.26584 15.3818 9.234L15.3255 9.222L13.3875 8.895L12.477 7.15275ZM11.8125 9.12L12.2303 9.92025C12.2839 10.0229 12.3605 10.1117 12.4542 10.1798C12.5479 10.2478 12.6561 10.2932 12.7703 10.3125L13.6597 10.4625L13.0283 11.1068C12.9547 11.1818 12.8977 11.2714 12.861 11.3699C12.8243 11.4683 12.8087 11.5734 12.8152 11.6783L12.822 11.7413L12.9548 12.6337L12.1462 12.2325C12.0531 12.1861 11.9513 12.1596 11.8474 12.1547C11.7434 12.1498 11.6396 12.1666 11.5425 12.204L11.4788 12.2325L10.671 12.6337L10.803 11.7413C10.8184 11.6374 10.8118 11.5314 10.7836 11.4303C10.7554 11.3291 10.7063 11.235 10.6395 11.154L10.5968 11.1068L9.96525 10.4618L10.8547 10.3117C10.9584 10.2944 11.0572 10.2554 11.1448 10.1974C11.2324 10.1394 11.3068 10.0636 11.3632 9.975L11.3948 9.92025L11.8125 9.12Z" fill="black"/>
</svg>
