<svg width="25" height="20" viewBox="0 0 25 20" fill="none" xmlns="http://www.w3.org/2000/svg">
<g clip-path="url(#clip0_5598_690)">
<g clip-path="url(#clip1_5598_690)">
<g clip-path="url(#clip2_5598_690)">
<g clip-path="url(#clip3_5598_690)">
<path d="M20.2211 9.2082L12.5627 16.8665C11.6245 17.8047 10.3521 18.3318 9.02524 18.3318C7.69842 18.3318 6.42594 17.8047 5.48774 16.8665C4.54954 15.9283 4.02246 14.6558 4.02246 13.329C4.02246 12.0022 4.54954 10.7297 5.48774 9.79153L13.1461 2.1332C13.7715 1.50773 14.6199 1.15634 15.5044 1.15634C16.389 1.15634 17.2373 1.50773 17.8627 2.1332C18.4882 2.75866 18.8396 3.60698 18.8396 4.49153C18.8396 5.37607 18.4882 6.22439 17.8627 6.84986L10.1961 14.5082C9.88334 14.8209 9.45918 14.9966 9.01691 14.9966C8.57463 14.9966 8.15048 14.8209 7.83774 14.5082C7.52501 14.1955 7.34931 13.7713 7.34931 13.329C7.34931 12.8868 7.52501 12.4626 7.83774 12.1499L14.9127 5.0832" stroke="#1D2633" stroke-width="1.66667" stroke-linecap="round" stroke-linejoin="round"/>
</g>
</g>
</g>
</g>
<defs>
<clipPath id="clip0_5598_690">
<rect width="24.7143" height="20" fill="white"/>
</clipPath>
<clipPath id="clip1_5598_690">
<rect width="23.1429" height="20" fill="white" transform="translate(0.785645)"/>
</clipPath>
<clipPath id="clip2_5598_690">
<rect width="21.5714" height="20" fill="white" transform="translate(1.57129)"/>
</clipPath>
<clipPath id="clip3_5598_690">
<rect width="20" height="20" fill="white" transform="translate(2.35693)"/>
</clipPath>
</defs>
</svg>
